<mxfile host="app.diagrams.net" agent="Mozilla/5.0 (Windows NT 10.0; Win64; x64) AppleWebKit/537.36 (KHTML, like Gecko) Chrome/128.0.0.0 Safari/537.36 Edg/128.0.0.0" version="24.7.8">
  <diagram name="Page-1" id="j2WOUM1kFjXnG9B-dYNT">
    <mxGraphModel dx="1737" dy="888" grid="1" gridSize="10" guides="1" tooltips="1" connect="1" arrows="1" fold="1" page="1" pageScale="1" pageWidth="850" pageHeight="1100" math="0" shadow="0">
      <root>
        <mxCell id="0" />
        <mxCell id="1" parent="0" />
        <mxCell id="5VJbKvwhRTchcQDiRbcQ-4" value="" style="edgeStyle=orthogonalEdgeStyle;rounded=0;orthogonalLoop=1;jettySize=auto;html=1;" edge="1" parent="1" source="5VJbKvwhRTchcQDiRbcQ-1" target="5VJbKvwhRTchcQDiRbcQ-3">
          <mxGeometry relative="1" as="geometry" />
        </mxCell>
        <mxCell id="5VJbKvwhRTchcQDiRbcQ-1" value="start" style="rounded=1;whiteSpace=wrap;html=1;" vertex="1" parent="1">
          <mxGeometry x="400" y="30" width="120" height="60" as="geometry" />
        </mxCell>
        <mxCell id="5VJbKvwhRTchcQDiRbcQ-2" value="end" style="rounded=1;whiteSpace=wrap;html=1;" vertex="1" parent="1">
          <mxGeometry x="400" y="700" width="120" height="60" as="geometry" />
        </mxCell>
        <mxCell id="5VJbKvwhRTchcQDiRbcQ-6" value="" style="edgeStyle=orthogonalEdgeStyle;rounded=0;orthogonalLoop=1;jettySize=auto;html=1;" edge="1" parent="1" source="5VJbKvwhRTchcQDiRbcQ-3" target="5VJbKvwhRTchcQDiRbcQ-5">
          <mxGeometry relative="1" as="geometry" />
        </mxCell>
        <mxCell id="5VJbKvwhRTchcQDiRbcQ-3" value="x: int =&amp;nbsp;&lt;div&gt;write a random number&lt;/div&gt;" style="shape=dataStorage;whiteSpace=wrap;html=1;fixedSize=1;" vertex="1" parent="1">
          <mxGeometry x="370" y="150" width="180" height="80" as="geometry" />
        </mxCell>
        <mxCell id="5VJbKvwhRTchcQDiRbcQ-9" value="" style="edgeStyle=orthogonalEdgeStyle;rounded=0;orthogonalLoop=1;jettySize=auto;html=1;" edge="1" parent="1" source="5VJbKvwhRTchcQDiRbcQ-5" target="5VJbKvwhRTchcQDiRbcQ-7">
          <mxGeometry relative="1" as="geometry" />
        </mxCell>
        <mxCell id="5VJbKvwhRTchcQDiRbcQ-5" value="print (x)" style="shape=document;whiteSpace=wrap;html=1;boundedLbl=1;" vertex="1" parent="1">
          <mxGeometry x="400" y="310" width="120" height="80" as="geometry" />
        </mxCell>
        <mxCell id="5VJbKvwhRTchcQDiRbcQ-10" value="" style="edgeStyle=orthogonalEdgeStyle;rounded=0;orthogonalLoop=1;jettySize=auto;html=1;" edge="1" parent="1" source="5VJbKvwhRTchcQDiRbcQ-7" target="5VJbKvwhRTchcQDiRbcQ-8">
          <mxGeometry relative="1" as="geometry" />
        </mxCell>
        <mxCell id="5VJbKvwhRTchcQDiRbcQ-7" value="print (x)" style="shape=document;whiteSpace=wrap;html=1;boundedLbl=1;" vertex="1" parent="1">
          <mxGeometry x="400" y="430" width="120" height="80" as="geometry" />
        </mxCell>
        <mxCell id="5VJbKvwhRTchcQDiRbcQ-11" value="" style="edgeStyle=orthogonalEdgeStyle;rounded=0;orthogonalLoop=1;jettySize=auto;html=1;" edge="1" parent="1" source="5VJbKvwhRTchcQDiRbcQ-8" target="5VJbKvwhRTchcQDiRbcQ-2">
          <mxGeometry relative="1" as="geometry" />
        </mxCell>
        <mxCell id="5VJbKvwhRTchcQDiRbcQ-8" value="print (x)" style="shape=document;whiteSpace=wrap;html=1;boundedLbl=1;" vertex="1" parent="1">
          <mxGeometry x="400" y="550" width="120" height="80" as="geometry" />
        </mxCell>
      </root>
    </mxGraphModel>
  </diagram>
</mxfile>
